<svg width="94" height="94" viewBox="0 0 94 94" fill="none" xmlns="http://www.w3.org/2000/svg">
<path d="M70.5947 29.2944C73.3826 29.2946 75.9585 30.7652 77.3525 33.1519L91.7422 57.7896C93.1363 60.1766 93.1363 63.1183 91.7422 65.5054L77.3525 90.1431C75.9585 92.5298 73.3826 94.0003 70.5947 94.0005H41.8154C39.0274 94.0004 36.4507 92.53 35.0566 90.1431L20.668 65.5054C19.2739 63.1183 19.2739 60.1766 20.668 57.7896L35.0566 33.1519C36.4507 30.7649 39.0274 29.2945 41.8154 29.2944H70.5947Z" fill="#A8E7CF"/>
<path d="M50.8433 0.540039C53.8189 -0.542714 57.1529 0.026247 59.5894 2.03223L90.8042 27.7354C93.2407 29.7416 94.4099 32.8807 93.8706 35.9697L91.5728 49.1289L80.0571 29.2627C78.4847 26.55 75.5789 24.879 72.4341 24.8789H39.9741C36.8293 24.8789 33.9235 26.55 32.3511 29.2627L16.1206 57.2627C14.5484 59.9753 14.5483 63.3177 16.1206 66.0303L31.1763 92.0029L3.1958 68.9639C0.759327 66.9576 -0.409895 63.8185 0.129395 60.7295L7.03857 21.1543C7.5779 18.0653 9.74347 15.4949 12.7192 14.4121L50.8433 0.540039Z" fill="#FFD100"/>
<path d="M31.0469 48.4844H38.9286V51.5982H34.9962V52.77H38.1355V55.9005H34.9962V57.0726H38.9286V60.203H31.0469V48.4844Z" fill="#0E1C36"/>
<path d="M50.9112 48.4844L47.4345 54.4609L50.7764 60.203H46.2531L45.1729 58.3447L44.0927 60.203H39.5696L42.9113 54.4609L39.4346 48.4844H43.9577L45.1729 50.5769L46.3882 48.4844H50.9112Z" fill="#0E1C36"/>
<path d="M58.2528 51.5982V60.203H54.3542V51.5982H51.4175V48.4844H61.1727V51.5982H58.2528Z" fill="#0E1C36"/>
<path d="M61.8472 48.4844H66.9271C67.7034 48.4844 68.4233 48.6798 69.0875 49.0702C69.7513 49.4612 70.2799 49.9855 70.6741 50.644C71.0678 51.3026 71.2647 52.0167 71.2647 52.7867C71.2647 53.4343 71.1295 54.0397 70.8597 54.6032C70.5896 55.1668 70.2123 55.6496 69.7289 56.0513L72.1422 60.203H67.5853L65.7794 57.0892V60.203H61.8472V48.4844ZM65.7794 52.1673V53.423H66.6738C66.8539 53.423 67.0055 53.3618 67.1296 53.2388C67.2532 53.1161 67.3152 52.9655 67.3152 52.7867C67.3152 52.6085 67.2532 52.4602 67.1296 52.3432C67.0055 52.2259 66.8539 52.1673 66.6738 52.1673H65.7794Z" fill="#0E1C36"/>
<path d="M80.4622 48.4844L84.4453 60.203H80.2934L79.804 58.7297H76.1754L75.6521 60.203H71.5005L75.4836 48.4844H80.4622ZM78.69 55.4655L77.9813 53.3727L77.2555 55.4655H78.69Z" fill="#0E1C36"/>
<path d="M38.9286 67.8268L40.7683 62.4526H45.764L46.8104 74.1714H42.8443L42.4561 69.6514L40.9033 74.1714H36.9371L35.3845 69.6514L34.9962 74.1714H31.0469L32.0765 62.4526H37.0889L38.9286 67.8268Z" fill="#0E1C36"/>
<path d="M47.8672 62.4526H51.8166V74.1714H47.8672V62.4526Z" fill="#0E1C36"/>
<path d="M53.043 62.4526H56.9752V71.041H60.9247V74.1714H53.043V62.4526Z" fill="#0E1C36"/>
<path d="M61.769 62.4526H69.6508V65.5668H65.7181V66.7385H68.8573V69.8689H65.7181V71.041H69.6508V74.1714H61.769V62.4526Z" fill="#0E1C36"/>
</svg>
